<svg width="1280" height="720" xmlns="http://www.w3.org/2000/svg" xmlns:xlink="http://www.w3.org/1999/xlink" overflow="hidden"><defs><linearGradient x1="798.707" y1="226.829" x2="481.293" y2="493.171" gradientUnits="userSpaceOnUse" spreadMethod="reflect" id="fill0"><stop offset="0" stop-color="#FFC000"/><stop offset="0.21" stop-color="#FFC000"/><stop offset="0.68" stop-color="#CB0101"/><stop offset="1" stop-color="#CB0101"/></linearGradient></defs><g><rect x="0" y="0" width="1280" height="720" fill="#FFFFFF"/><path d="M642.345 566.591C640.829 567.136 639.171 567.136 637.655 566.591 617.528 559.553 474 503.662 474 344.518L474 200.692C473.991 196.885 476.585 193.563 480.287 192.64L637.987 153.247C639.309 152.918 640.691 152.918 642.013 153.247L799.713 192.64C803.415 193.563 806.009 196.885 806 200.692L806 344.518C806 505.256 662.493 559.739 642.345 566.612Z" fill-rule="evenodd"/><path d="M642.076 543.636C640.734 544.121 639.266 544.121 637.924 543.636 620.1 537.38 493 487.7 493 346.238L493 218.393C492.992 215.009 495.289 212.056 498.568 211.235L638.218 176.22C639.388 175.927 640.612 175.927 641.782 176.22L781.432 211.235C784.711 212.056 787.008 215.009 787 218.393L787 346.238C787 489.116 659.919 537.546 642.076 543.655Z" fill="#FFFFFF" fill-rule="evenodd"/><path d="M641.865 524.674C640.66 525.109 639.341 525.109 638.135 524.674 622.13 519.064 508 474.513 508 347.659L508 233.016C507.993 229.981 510.056 227.333 513 226.597L638.4 195.197C639.45 194.934 640.55 194.934 641.601 195.197L767 226.597C769.944 227.333 772.007 229.981 772 233.016L772 347.659C772 475.784 657.886 519.212 641.865 524.691Z" fill="url(#fill0)" fill-rule="evenodd"/><path d="M683 349C659.252 349 640 368.252 640 392 640 415.748 659.252 435 683 435 706.748 435 726 415.748 726 392 725.973 368.263 706.737 349.027 683 349ZM714.766 386.625 704.265 386.625C703.567 378.52 701.345 370.619 697.717 363.338 706.744 367.989 713.059 376.614 714.766 386.625ZM672.548 386.625C673.537 376.91 677.15 367.647 683 359.828 688.851 367.647 692.465 376.91 693.453 386.625ZM693.457 397.375C692.468 407.091 688.853 416.354 683 424.172 677.149 416.353 673.535 407.09 672.547 397.375ZM668.285 363.341C664.656 370.621 662.433 378.52 661.734 386.625L651.234 386.625C652.941 376.616 659.255 367.991 668.282 363.341ZM651.234 397.375 661.732 397.375C662.43 405.479 664.652 413.379 668.28 420.66 659.254 416.008 652.941 407.384 651.234 397.375ZM697.718 420.66C701.346 413.379 703.568 405.479 704.266 397.375L714.766 397.375C713.06 407.385 706.746 416.009 697.719 420.66Z" fill="#FFFFFF" fill-rule="evenodd"/><rect x="597" y="349" width="32" height="11" fill="#FFFFFF"/><rect x="597" y="306" width="64" height="11" fill="#FFFFFF"/><rect x="597" y="328" width="64" height="11" fill="#FFFFFF"/><rect x="597" y="403" width="32" height="11" fill="#FFFFFF"/><path d="M629.5 435 586.7 435C580.793 434.994 576.006 430.2 576 424.286L576 295.714C576.006 289.8 580.793 285.006 586.7 285L672.3 285C678.207 285.006 682.994 289.8 683 295.714L683 338.571 672.3 338.571 672.3 295.714 586.7 295.714 586.7 424.286 629.5 424.286Z" fill="#FFFFFF" fill-rule="evenodd"/></g></svg>