<svg width="1280" height="720" xmlns="http://www.w3.org/2000/svg" xmlns:xlink="http://www.w3.org/1999/xlink" overflow="hidden"><defs><linearGradient x1="1031.91" y1="59.2606" x2="315.093" y2="660.739" gradientUnits="userSpaceOnUse" spreadMethod="reflect" id="fill0"><stop offset="0" stop-color="#FFC000"/><stop offset="0.21" stop-color="#FFC000"/><stop offset="0.68" stop-color="#CB0101"/><stop offset="1" stop-color="#CB0101"/></linearGradient></defs><g><path d="M711 156 712 157 711.765 156.865 711 156Z" fill-rule="evenodd"/><path d="M793 208 792.876 208.222 792 209 793 208Z" fill-rule="evenodd"/><path d="M765 210 766 211 765.592 210.834 765 210Z" fill-rule="evenodd"/><path d="M869 320 870 321 869.258 320.382 869 320Z" fill-rule="evenodd"/><path d="M870 321 871 322 870.04 321.051 870 321Z" fill-rule="evenodd"/><path d="M789 70 789.008 70.0049 790 71 789 70Z" fill-rule="evenodd"/><path d="M789 72 789.337 72.2006 790 73 789 72Z" fill-rule="evenodd"/><path d="M762 76 761 77 761.286 76.5506 762 76Z" fill-rule="evenodd"/><path d="M687 89 687.677 89.3455 688 90 687 89Z" fill-rule="evenodd"/><path d="M848 153 847.818 153.308 847 154 848 153Z" fill-rule="evenodd"/><path d="M953 229 953.632 229.449 954 230 953 229Z" fill-rule="evenodd"/><path d="M924 234 923 235 923.462 234.413 924 234Z" fill-rule="evenodd"/><path d="M1032 236 1033 237 1032.02 236.024 1032 236Z" fill-rule="evenodd"/><path d="M958 374 957.693 374.466 957 375 958 374Z" fill-rule="evenodd"/><path d="M270 195.335C270 149.863 306.863 113 352.335 113L994.665 113C1040.14 113 1077 149.863 1077 195.335L1077 524.665C1077 570.137 1040.14 607 994.665 607L352.335 607C306.863 607 270 570.137 270 524.665Z" fill="url(#fill0)" fill-rule="evenodd"/><path d="M673.765 171 621 541.516 673.235 549 726 178.485 673.765 171Z" fill="#F2F2F2" fill-rule="evenodd"/><path d="M792.411 453 755 415.423 810.178 360 755 304.578 792.411 267 885 360 792.411 453Z" fill="#F2F2F2" fill-rule="evenodd"/><path d="M536.823 360 592 415.423 554.589 453 462 360 554.589 267 592 304.578 536.823 360Z" fill="#F2F2F2" fill-rule="evenodd"/></g></svg>