<svg width="1280" height="720" xmlns="http://www.w3.org/2000/svg" xmlns:xlink="http://www.w3.org/1999/xlink" overflow="hidden"><defs><linearGradient x1="600.5" y1="420" x2="600.5" y2="657" gradientUnits="userSpaceOnUse" spreadMethod="reflect" id="fill0"><stop offset="0" stop-color="#FFFF00" stop-opacity="0.541176"/><stop offset="0.29" stop-color="#FFFF00" stop-opacity="0.541176"/><stop offset="0.57" stop-color="#FF0000"/><stop offset="0.73" stop-color="#C00000"/><stop offset="1" stop-color="#C00000"/></linearGradient><linearGradient x1="601.355" y1="280.475" x2="601.355" y2="540.525" gradientUnits="userSpaceOnUse" spreadMethod="reflect" id="stroke1"><stop offset="0" stop-color="#FFC000"/><stop offset="0.32" stop-color="#FFC000"/><stop offset="0.67" stop-color="#FF0000"/><stop offset="1" stop-color="#C00000"/></linearGradient><linearGradient x1="601.5" y1="537" x2="601.5" y2="284" gradientUnits="userSpaceOnUse" spreadMethod="reflect" id="fill2"><stop offset="0" stop-color="#C00000"/><stop offset="0.32" stop-color="#FF0303"/><stop offset="0.67" stop-color="#FFC000" stop-opacity="0.819608"/><stop offset="1" stop-color="#FFC000" stop-opacity="0.141176"/></linearGradient></defs><g><path d="M541.542 239.431 546.698 254.669 536.316 254.669ZM579.829 224.649 571.692 272.464 584.109 272.464 588.174 244.931 599.211 272.464 604.152 272.464 615.715 244.931 619.255 272.464 631.707 272.464 624.481 224.649 612.064 224.649 601.823 250.15 592.141 224.649ZM534.842 224.649 516.428 272.464 529.581 272.464 532.878 264.127 550.065 264.127 553.152 272.464 566.446 272.464 548.417 224.649ZM657.741 223.493C652.597 223.493 648.481 225.207 645.394 228.636 642.752 231.552 641.431 235.225 641.431 239.657 641.431 243.902 642.707 247.075 645.261 249.174 646.151 249.897 647.228 250.527 648.493 251.063 649.29 251.413 651.234 252.043 654.326 252.953 656.879 253.684 658.694 254.403 659.772 255.111 661.224 256.055 661.95 257.234 661.95 258.65 661.95 260.207 661.294 261.41 659.982 262.259 658.857 263.014 657.486 263.391 655.869 263.391 652.284 263.391 648.617 261.698 644.868 258.312L639.537 268.331C644.658 271.95 650.211 273.76 656.198 273.76 659.051 273.76 661.716 273.328 664.195 272.462 671.304 270.007 674.858 264.735 674.858 256.646 674.858 253.49 674.05 250.906 672.433 248.896 670.56 246.534 667.421 244.71 663.017 243.424 659.504 242.393 657.396 241.667 656.693 241.244 655.123 240.33 654.339 239.241 654.339 237.975 654.339 236.686 654.936 235.655 656.132 234.881 657.187 234.201 658.383 233.861 659.719 233.861 662.486 233.861 665.229 234.924 667.948 237.049L672.929 227.381C667.972 224.789 662.909 223.493 657.741 223.493ZM597.5 195C673.991 195 736 256.927 736 333.317 736 345.253 734.486 356.836 731.64 367.884L728.864 376.427 731.358 368.319 731.527 367.435 727.795 365.169 723.401 361.654C696.105 340.881 672.097 325.577 656.732 282.95 646.846 325.577 642.443 316.94 614.853 337.427 584.855 357.139 588.34 364.096 585.446 366.271L580.188 369.466 577.486 371.537C565.34 366.493 570.731 368.888 560.178 348.433 554.165 328.755 559.255 332.98 536.365 312.715 537.641 340.994 519.419 328.106 510.961 358.158 506.027 375.654 496.209 382.979 479.373 388.677L471.862 391 468.607 384.034C462.406 368.33 459 351.221 459 333.317 459 256.927 521.009 195 597.5 195Z" stroke="#000000" stroke-width="2" stroke-miterlimit="8" fill-rule="evenodd"/><path d="M466.672 420 471.607 435.236C481.941 461.486 500.038 483.821 523.063 499.402L530.146 503.712 534.546 507.237C561.876 528.071 585.913 543.42 601.298 586.173 611.196 543.42 635.825 529.164 663.982 509.15L672.672 502.606 677.937 499.402C700.963 483.821 719.059 461.486 729.393 435.236L734.328 420 736.186 427.238C738.031 436.269 739 445.619 739 455.196 739 503.081 714.778 545.299 677.937 570.229L672.672 573.432 663.982 579.977C635.825 599.991 611.196 614.247 601.298 657 585.913 614.247 561.876 598.898 534.546 578.064L530.146 574.538 523.063 570.229C486.222 545.299 462 503.081 462 455.196 462 445.619 462.969 436.269 464.814 427.238L466.672 420Z" fill="url(#fill0)" fill-rule="evenodd"/><path d="M656.861 284C672.297 326.794 696.415 342.158 723.837 363.012L728.251 366.541 732 368.817 731.83 369.704C723.262 402.98 702.661 431.429 674.937 450.145L669.655 453.352 662.983 458.364 662.983 458.364 660.936 459.902C632.685 479.936 607.973 494.206 598.042 537 582.606 494.206 558.488 478.842 531.066 457.988L526.652 454.459 522.903 452.183 519.546 450.145C501.063 437.668 485.746 420.865 475.05 401.189L471 392.518C492.683 386.314 504.755 379.578 510.421 359.503 518.917 329.333 537.222 342.272 535.941 313.882 558.936 334.226 553.823 329.985 559.864 349.741 570.465 370.276 565.049 367.871 577.251 372.934L577.251 372.934 579.966 370.855 585.248 367.649C588.154 365.465 584.654 358.48 614.789 338.691 642.506 318.124 646.93 326.794 656.861 284Z" stroke="url(#stroke1)" stroke-width="2" stroke-miterlimit="8" fill="url(#fill2)" fill-rule="evenodd"/><path d="M217.5 365C337.622 365 435 267.814 435 147.93 435 95.48 416.361 47.3752 385.334 9.85255L376.361 0 376.361 139.16 376.808 147.998C376.808 235.77 305.514 306.923 217.569 306.923 135.12 306.923 67.3063 244.386 59.1517 164.248L58.626 153.858 58.554 153.858 58.554 152.435 58.3295 147.998 58.554 143.562 58.554 0.0931396 49.6665 9.85255C18.6388 47.3752 0 95.48 0 147.93 0 267.814 97.3781 365 217.5 365Z" stroke="#3A3A3A" stroke-width="2" stroke-miterlimit="8" fill-rule="evenodd" transform="matrix(1 0 0 -1 380 465)"/></g></svg>