<svg width="1280" height="720" xmlns="http://www.w3.org/2000/svg" xmlns:xlink="http://www.w3.org/1999/xlink" overflow="hidden"><defs><filter id="fx0" x="-10%" y="-10%" width="120%" height="120%" filterUnits="userSpaceOnUse" primitiveUnits="userSpaceOnUse"><feComponentTransfer color-interpolation-filters="sRGB"><feFuncR type="discrete" tableValues="0 0"/><feFuncG type="discrete" tableValues="0 0"/><feFuncB type="discrete" tableValues="0 0"/><feFuncA type="linear" slope="0.4" intercept="0"/></feComponentTransfer><feGaussianBlur stdDeviation="1.0604 1.0604"/></filter><filter id="fx1" x="-10%" y="-10%" width="120%" height="120%" filterUnits="userSpaceOnUse" primitiveUnits="userSpaceOnUse"><feComponentTransfer color-interpolation-filters="sRGB"><feFuncR type="discrete" tableValues="0 0"/><feFuncG type="discrete" tableValues="0 0"/><feFuncB type="discrete" tableValues="0 0"/><feFuncA type="linear" slope="0.4" intercept="0"/></feComponentTransfer><feGaussianBlur stdDeviation="1.0604 1.0604"/></filter><linearGradient x1="600.5" y1="420" x2="600.5" y2="657" gradientUnits="userSpaceOnUse" spreadMethod="reflect" id="fill2"><stop offset="0" stop-color="#FFFF00" stop-opacity="0.541176"/><stop offset="0.29" stop-color="#FFFF00" stop-opacity="0.541176"/><stop offset="0.57" stop-color="#FF0000"/><stop offset="0.73" stop-color="#C00000"/><stop offset="1" stop-color="#C00000"/></linearGradient><linearGradient x1="601.355" y1="280.475" x2="601.355" y2="540.525" gradientUnits="userSpaceOnUse" spreadMethod="reflect" id="stroke3"><stop offset="0" stop-color="#FFC000"/><stop offset="0.32" stop-color="#FFC000"/><stop offset="0.67" stop-color="#FF0000"/><stop offset="1" stop-color="#C00000"/></linearGradient><linearGradient x1="601.5" y1="537" x2="601.5" y2="284" gradientUnits="userSpaceOnUse" spreadMethod="reflect" id="fill4"><stop offset="0" stop-color="#C00000"/><stop offset="0.32" stop-color="#FF0303"/><stop offset="0.67" stop-color="#FFC000" stop-opacity="0.819608"/><stop offset="1" stop-color="#FFC000" stop-opacity="0.141176"/></linearGradient><clipPath id="clip5"><rect x="45" y="43" width="100" height="53"/></clipPath><clipPath id="clip6"><rect x="47" y="41" width="266" height="67"/></clipPath></defs><g><path d="M597.5 195C673.991 195 736 256.927 736 333.317 736 345.253 734.486 356.836 731.64 367.884L728.864 376.427 731.358 368.319 731.527 367.435 727.795 365.169 723.401 361.654C696.105 340.881 672.097 325.577 656.732 282.95 646.846 325.577 642.443 316.94 614.853 337.427 584.855 357.139 588.34 364.096 585.446 366.271L580.188 369.466 577.486 371.537C565.34 366.493 570.731 368.888 560.178 348.433 554.165 328.755 559.255 332.98 536.365 312.715 537.641 340.994 519.419 328.106 510.961 358.158 506.027 375.654 496.209 382.979 479.373 388.677L471.862 391 468.607 384.034C462.406 368.33 459 351.221 459 333.317 459 256.927 521.009 195 597.5 195Z" stroke="#042433" stroke-width="2" stroke-miterlimit="8" fill-rule="evenodd"/><path d="M466.672 420 471.607 435.236C481.941 461.486 500.038 483.821 523.063 499.402L530.146 503.712 534.546 507.237C561.876 528.071 585.913 543.42 601.298 586.173 611.196 543.42 635.825 529.164 663.982 509.15L672.672 502.606 677.937 499.402C700.963 483.821 719.059 461.486 729.393 435.236L734.328 420 736.186 427.238C738.031 436.269 739 445.619 739 455.196 739 503.081 714.778 545.299 677.937 570.229L672.672 573.432 663.982 579.977C635.825 599.991 611.196 614.247 601.298 657 585.913 614.247 561.876 598.898 534.546 578.064L530.146 574.538 523.063 570.229C486.222 545.299 462 503.081 462 455.196 462 445.619 462.969 436.269 464.814 427.238L466.672 420Z" fill="url(#fill2)" fill-rule="evenodd"/><path d="M656.861 284C672.297 326.794 696.415 342.158 723.837 363.012L728.251 366.541 732 368.817 731.83 369.704C723.262 402.98 702.661 431.429 674.937 450.145L669.655 453.352 662.983 458.364 662.983 458.364 660.936 459.902C632.685 479.936 607.973 494.206 598.042 537 582.606 494.206 558.488 478.842 531.066 457.988L526.652 454.459 522.903 452.183 519.546 450.145C501.063 437.668 485.746 420.865 475.05 401.189L471 392.518C492.683 386.314 504.755 379.578 510.421 359.503 518.917 329.333 537.222 342.272 535.941 313.882 558.936 334.226 553.823 329.985 559.864 349.741 570.465 370.276 565.049 367.871 577.251 372.934L577.251 372.934 579.966 370.855 585.248 367.649C588.154 365.465 584.654 358.48 614.789 338.691 642.506 318.124 646.93 326.794 656.861 284Z" stroke="url(#stroke3)" stroke-width="2" stroke-miterlimit="8" fill="url(#fill4)" fill-rule="evenodd"/><path d="M217.5 365C337.622 365 435 267.814 435 147.93 435 95.48 416.361 47.3752 385.334 9.85255L376.361 0 376.361 139.16 376.808 147.998C376.808 235.77 305.514 306.923 217.569 306.923 135.12 306.923 67.3063 244.386 59.1517 164.248L58.626 153.858 58.554 153.858 58.554 152.435 58.3295 147.998 58.554 143.562 58.554 0.0931396 49.6665 9.85255C18.6388 47.3752 0 95.48 0 147.93 0 267.814 97.3781 365 217.5 365Z" stroke="#3A3A3A" stroke-width="2" stroke-miterlimit="8" fill-rule="evenodd" transform="matrix(1 0 0 -1 380 465)"/><g clip-path="url(#clip5)" filter="url(#fx0)" transform="translate(778 174)"><g><path d="M0.28125 0 18-47.3203 24.6797-47.3203 42.1523 0 35.6133 0 31.1133-13.2539 11.4961-13.2539 6.78516 0ZM13.2188-18.5625 29.3203-18.5625 21.3047-41.0273ZM48.6875 0 48.6875-47.3203 55.6133-47.3203 72.4531-19.4414 69.8867-19.4414 86.4102-47.3203 93.1602-47.3203 93.1602 0 86.9375 0 86.9375-42.0469 89.1172-42.0469 73.0508-14.8711 68.9023-14.8711 52.5898-42.0469 54.7695-42.0469 54.7695 0Z" transform="translate(48.1893 93)"/></g></g><text font-family="Aptos,Aptos_MSFontService,sans-serif" font-weight="400" font-size="72" transform="translate(825.032 266)">AM</text><g clip-path="url(#clip6)" filter="url(#fx1)" transform="translate(779 259)"><g><path d="M20.707 0.632812C17.332 0.632812 14.2852 0.117187 11.5664-0.914062 8.84766-1.94531 6.68555-3.5625 5.08008-5.76562 3.47461-7.96875 2.67188-10.8281 2.67188-14.3438L9.03516-14.3438C9.03516-11.8359 9.58008-9.86719 10.6699-8.4375 11.7598-7.00781 13.207-6 15.0117-5.41406 16.8164-4.82812 18.7969-4.53516 20.9531-4.53516 22.9453-4.53516 24.7676-4.83398 26.4199-5.43164 28.0723-6.0293 29.3906-6.93164 30.375-8.13867 31.3594-9.3457 31.8516-10.8984 31.8516-12.7969 31.8516-14.4375 31.4648-15.7852 30.6914-16.8398 29.918-17.8945 28.6348-18.8145 26.8418-19.5996 25.0488-20.3848 22.6406-21.1641 19.6172-21.9375 16.0547-22.875 13.125-23.9004 10.8281-25.0137 8.53125-26.127 6.82617-27.5156 5.71289-29.1797 4.59961-30.8437 4.04297-32.9531 4.04297-35.5078 4.04297-38.2031 4.67578-40.4707 5.94141-42.3105 7.20703-44.1504 9.02344-45.5508 11.3906-46.5117 13.7578-47.4727 16.5703-47.9531 19.8281-47.9531 22.875-47.9531 25.6641-47.4609 28.1953-46.4766 30.7266-45.4922 32.748-44.0156 34.2598-42.0469 35.7715-40.0781 36.5273-37.6289 36.5273-34.6992L30.1992-34.6992C30.2227-37.3711 29.2383-39.3926 27.2461-40.7637 25.2539-42.1348 22.793-42.8203 19.8633-42.8203 16.8398-42.8203 14.4902-42.2168 12.8145-41.0098 11.1387-39.8027 10.3008-38.0391 10.3008-35.7188 10.3008-34.3359 10.6641-33.1816 11.3906-32.2559 12.1172-31.3301 13.3652-30.4922 15.1348-29.7422 16.9043-28.9922 19.3711-28.207 22.5352-27.3867 26.1914-26.4023 29.1621-25.3477 31.4473-24.2227 33.7324-23.0977 35.4141-21.6562 36.4922-19.8984 37.5703-18.1406 38.1094-15.832 38.1094-12.9727 38.1094-9.92578 37.3477-7.40039 35.8242-5.39648 34.3008-3.39258 32.2266-1.88672 29.6016-0.878906 26.9766 0.128906 24.0117 0.632812 20.707 0.632812ZM44.5314 12.5859 44.5314 7.73438 47.4142 7.73438C48.7502 7.73437 49.881 7.37695 50.8068 6.66211 51.7326 5.94727 52.5236 4.75781 53.1798 3.09375L54.5158 0 40.84-34.2422 47.0627-34.2422 57.6447-6.22266 67.4181-34.2422 73.3947-34.2422 60.5275 0 58.9103 4.14844C58.1134 6.1875 57.2638 7.82812 56.3615 9.07031 55.4591 10.3125 54.3517 11.209 53.0392 11.7598 51.7267 12.3105 50.0509 12.5859 48.0119 12.5859ZM90.7091 0.632812C88.7872 0.632812 86.9649 0.421875 85.2423 0 83.5196-0.421875 82.002-1.08984 80.6895-2.00391 79.377-2.91797 78.3516-4.11914 77.6134-5.60742 76.8751-7.0957 76.5059-8.89453 76.5059-11.0039L82.1661-11.0039C82.1661-8.33203 82.9923-6.45117 84.6446-5.36133 86.297-4.27148 88.3653-3.72656 90.8497-3.72656 93.0762-3.72656 94.9102-4.1543 96.3516-5.00977 97.793-5.86523 98.5137-7.27734 98.5137-9.24609 98.5137-10.9336 97.8634-12.1875 96.5626-13.0078 95.2618-13.8281 92.9708-14.625 89.6895-15.3984 87.0177-16.0312 84.7677-16.7637 82.9395-17.5957 81.1114-18.4277 79.7403-19.4824 78.8262-20.7598 77.9122-22.0371 77.4552-23.6484 77.4552-25.5938 77.4552-27.1172 77.7774-28.459 78.422-29.6191 79.0665-30.7793 79.9688-31.7461 81.129-32.5195 82.2891-33.293 83.6544-33.873 85.2247-34.2598 86.795-34.6465 88.4942-34.8398 90.3223-34.8398 92.127-34.8398 93.8204-34.6289 95.4024-34.207 96.9845-33.7852 98.379-33.1289 99.586-32.2383 100.793-31.3477 101.748-30.1992 102.451-28.793 103.154-27.3867 103.506-25.6992 103.506-23.7305L97.8106-23.7305C97.8106-26.168 97.0841-27.8906 95.6309-28.8984 94.1778-29.9062 92.4083-30.4102 90.3223-30.4102 88.213-30.4102 86.502-30.0352 85.1895-29.2852 83.877-28.5352 83.2208-27.3633 83.2208-25.7695 83.2208-24.8555 83.5137-24.082 84.0997-23.4492 84.6856-22.8164 85.67-22.248 87.0528-21.7441 88.4356-21.2402 90.2989-20.707 92.6427-20.1445 95.1973-19.5352 97.3419-18.8086 99.0762-17.9648 100.811-17.1211 102.117-16.0371 102.996-14.7129 103.875-13.3887 104.315-11.6953 104.315-9.63281 104.315-7.85156 103.969-6.31055 103.277-5.00977 102.586-3.70898 101.625-2.64258 100.395-1.81055 99.1641-0.978516 97.7227-0.363281 96.0704 0.0351562 94.418 0.433594 92.6309 0.632812 90.7091 0.632812ZM124.586 0C121.82 0 119.699-0.439453 118.223-1.31836 116.746-2.19727 115.732-3.46289 115.182-5.11523 114.631-6.76758 114.355-8.75391 114.355-11.0742L114.355-29.4961 108.625-29.4961 108.625-34.2422 114.355-34.2422 114.355-42.082 120.191-42.082 120.191-34.2422 128.629-34.2422 128.629-29.4961 120.191-29.4961 120.191-11.3555C120.191-9.22266 120.467-7.58789 121.018-6.45117 121.568-5.31445 122.887-4.74609 124.973-4.74609L128.699-4.74609 128.699 0ZM150.378 0.632812C146.652 0.632812 143.599-0.146484 141.22-1.70508 138.841-3.26367 137.078-5.38477 135.929-8.06836 134.781-10.752 134.207-13.7695 134.207-17.1211 134.207-20.6133 134.763-23.6895 135.876-26.3496 136.99-29.0098 138.689-31.0898 140.974-32.5898 143.259-34.0898 146.16-34.8398 149.675-34.8398 154.339-34.8398 157.996-33.4336 160.644-30.6211 163.292-27.8086 164.617-23.7656 164.617-18.4922 164.617-18.1406 164.605-17.7246 164.582-17.2441 164.558-16.7637 164.523-16.418 164.476-16.207L140.078-16.207C140.101-13.9805 140.458-11.9355 141.15-10.0723 141.841-8.20898 142.937-6.71484 144.437-5.58984 145.937-4.46484 147.917-3.90234 150.378-3.90234 153.003-3.90234 155.054-4.51758 156.531-5.74805 158.007-6.97852 158.781-8.75391 158.851-11.0742L164.652-11.0742C164.582-8.66016 163.96-6.58008 162.789-4.83398 161.617-3.08789 159.976-1.74023 157.867-0.791016 155.757 0.158203 153.261 0.632812 150.378 0.632812ZM140.113-20.4961 158.816-20.4961C158.746-23.6836 157.914-26.1211 156.32-27.8086 154.726-29.4961 152.511-30.3398 149.675-30.3398 146.816-30.3398 144.572-29.502 142.943-27.8262 141.314-26.1504 140.371-23.707 140.113-20.4961ZM174.14 0 174.14-34.2422 179.765-34.2422 179.976-28.9688C180.984-30.3516 182.46-31.6582 184.406-32.8887 186.351-34.1191 188.777-34.7344 191.683-34.7344 195.48-34.7344 198.21-33.6211 199.875-31.3945 201.539-29.168 202.371-26.0625 202.371-22.0781L202.371 0 196.464 0 196.464-21.2344C196.464-22.8984 196.294-24.375 195.955-25.6641 195.615-26.9531 194.988-27.9668 194.074-28.7051 193.16-29.4434 191.847-29.8125 190.136-29.8125 187.722-29.8125 185.683-29.2324 184.019-28.0723 182.355-26.9121 181.019-25.6406 180.011-24.2578L180.011 0ZM218.718 0 218.718-21.2344C218.718-22.8984 218.548-24.375 218.209-25.6641 217.869-26.9531 217.242-27.9668 216.328-28.7051 215.414-29.4434 214.113-29.8125 212.425-29.8125 209.988-29.8125 207.937-29.2441 206.273-28.1074 204.609-26.9707 203.238-25.7109 202.16-24.3281L201.281-28.6172C202.64-30.1172 204.357-31.5117 206.431-32.8008 208.505-34.0898 210.996-34.7344 213.902-34.7344 217.699-34.7344 220.429-33.6211 222.093-31.3945 223.757-29.168 224.589-26.0625 224.589-22.0781L224.589 0ZM247.769 0.632812C245.847 0.632812 244.025 0.421875 242.302 0 240.58-0.421875 239.062-1.08984 237.75-2.00391 236.437-2.91797 235.412-4.11914 234.673-5.60742 233.935-7.0957 233.566-8.89453 233.566-11.0039L239.226-11.0039C239.226-8.33203 240.052-6.45117 241.705-5.36133 243.357-4.27148 245.425-3.72656 247.91-3.72656 250.136-3.72656 251.97-4.1543 253.412-5.00977 254.853-5.86523 255.574-7.27734 255.574-9.24609 255.574-10.9336 254.923-12.1875 253.623-13.0078 252.322-13.8281 250.031-14.625 246.75-15.3984 244.078-16.0312 241.828-16.7637 240-17.5957 238.171-18.4277 236.8-19.4824 235.886-20.7598 234.972-22.0371 234.515-23.6484 234.515-25.5938 234.515-27.1172 234.837-28.459 235.482-29.6191 236.126-30.7793 237.029-31.7461 238.189-32.5195 239.349-33.293 240.714-33.873 242.285-34.2598 243.855-34.6465 245.554-34.8398 247.382-34.8398 249.187-34.8398 250.88-34.6289 252.462-34.207 254.044-33.7852 255.439-33.1289 256.646-32.2383 257.853-31.3477 258.808-30.1992 259.511-28.793 260.214-27.3867 260.566-25.6992 260.566-23.7305L254.871-23.7305C254.871-26.168 254.144-27.8906 252.691-28.8984 251.238-29.9062 249.468-30.4102 247.382-30.4102 245.273-30.4102 243.562-30.0352 242.25-29.2852 240.937-28.5352 240.281-27.3633 240.281-25.7695 240.281-24.8555 240.574-24.082 241.16-23.4492 241.746-22.8164 242.73-22.248 244.113-21.7441 245.496-21.2402 247.359-20.707 249.703-20.1445 252.257-19.5352 254.402-18.8086 256.136-17.9648 257.871-17.1211 259.177-16.0371 260.056-14.7129 260.935-13.3887 261.375-11.6953 261.375-9.63281 261.375-7.85156 261.029-6.31055 260.337-5.00977 259.646-3.70898 258.685-2.64258 257.455-1.81055 256.224-0.978516 254.783-0.363281 253.13 0.0351562 251.478 0.433594 249.691 0.632812 247.769 0.632812Z" transform="translate(47.9982 92)"/></g></g><text font-family="Aptos,Aptos_MSFontService,sans-serif" font-weight="400" font-size="72" transform="translate(825.841 350)">Systems</text></g></svg>