<svg width="1280" height="720" xmlns="http://www.w3.org/2000/svg" xmlns:xlink="http://www.w3.org/1999/xlink" overflow="hidden"><defs><linearGradient x1="601.355" y1="280.475" x2="601.355" y2="540.525" gradientUnits="userSpaceOnUse" spreadMethod="reflect" id="stroke0"><stop offset="0" stop-color="#FFC000"/><stop offset="0.32" stop-color="#FFC000"/><stop offset="0.67" stop-color="#FF0000"/><stop offset="1" stop-color="#C00000"/></linearGradient><linearGradient x1="601.5" y1="537" x2="601.5" y2="284" gradientUnits="userSpaceOnUse" spreadMethod="reflect" id="fill1"><stop offset="0" stop-color="#C00000"/><stop offset="0.32" stop-color="#FF0303"/><stop offset="0.67" stop-color="#FFC000" stop-opacity="0.819608"/><stop offset="1" stop-color="#FFC000" stop-opacity="0.141176"/></linearGradient></defs><g><path d="M597.5 195C673.991 195 736 256.927 736 333.317 736 345.253 734.486 356.836 731.64 367.884L728.864 376.427 731.358 368.319 731.527 367.435 727.795 365.169 723.401 361.654C696.105 340.881 672.097 325.577 656.732 282.95 646.846 325.577 642.443 316.94 614.853 337.427 584.855 357.139 588.34 364.096 585.446 366.271L580.188 369.466 577.486 371.537C565.34 366.493 570.731 368.888 560.178 348.433 554.165 328.755 559.255 332.98 536.365 312.715 537.641 340.994 519.419 328.106 510.961 358.158 506.027 375.654 496.209 382.979 479.373 388.677L471.862 391 468.607 384.034C462.406 368.33 459 351.221 459 333.317 459 256.927 521.009 195 597.5 195Z" stroke="#042433" stroke-width="2" stroke-miterlimit="8" fill-rule="evenodd"/><path d="M656.861 284C672.297 326.794 696.415 342.158 723.837 363.012L728.251 366.541 732 368.817 731.83 369.704C723.262 402.98 702.661 431.429 674.937 450.145L669.655 453.352 662.983 458.364 662.983 458.364 660.936 459.902C632.685 479.936 607.973 494.206 598.042 537 582.606 494.206 558.488 478.842 531.066 457.988L526.652 454.459 522.903 452.183 519.546 450.145C501.063 437.668 485.746 420.865 475.05 401.189L471 392.518C492.683 386.314 504.755 379.578 510.421 359.503 518.917 329.333 537.222 342.272 535.941 313.882 558.936 334.226 553.823 329.985 559.864 349.741 570.465 370.276 565.049 367.871 577.251 372.934L577.251 372.934 579.966 370.855 585.248 367.649C588.154 365.465 584.654 358.48 614.789 338.691 642.506 318.124 646.93 326.794 656.861 284Z" stroke="url(#stroke0)" stroke-width="2" stroke-miterlimit="8" fill="url(#fill1)" fill-rule="evenodd"/></g></svg>