<svg width="1280" height="720" xmlns="http://www.w3.org/2000/svg" xmlns:xlink="http://www.w3.org/1999/xlink" overflow="hidden"><defs><linearGradient x1="1050.74" y1="31.5572" x2="418.255" y2="615.443" gradientUnits="userSpaceOnUse" spreadMethod="reflect" id="fill0"><stop offset="0" stop-color="#DCEAF7"/><stop offset="0.25" stop-color="#DCEAF7"/><stop offset="0.75" stop-color="#163E64"/><stop offset="1" stop-color="#163E64"/></linearGradient><linearGradient x1="1050.74" y1="31.5572" x2="418.255" y2="615.443" gradientUnits="userSpaceOnUse" spreadMethod="reflect" id="fill1"><stop offset="0" stop-color="#DCEAF7"/><stop offset="0.25" stop-color="#DCEAF7"/><stop offset="0.75" stop-color="#163E64"/><stop offset="1" stop-color="#163E64"/></linearGradient><linearGradient x1="1050.74" y1="31.5572" x2="418.255" y2="615.443" gradientUnits="userSpaceOnUse" spreadMethod="reflect" id="fill2"><stop offset="0" stop-color="#DCEAF7"/><stop offset="0.25" stop-color="#DCEAF7"/><stop offset="0.75" stop-color="#163E64"/><stop offset="1" stop-color="#163E64"/></linearGradient><linearGradient x1="1050.74" y1="31.5572" x2="418.255" y2="615.443" gradientUnits="userSpaceOnUse" spreadMethod="reflect" id="fill3"><stop offset="0" stop-color="#DCEAF7"/><stop offset="0.25" stop-color="#DCEAF7"/><stop offset="0.75" stop-color="#163E64"/><stop offset="1" stop-color="#163E64"/></linearGradient><linearGradient x1="1050.74" y1="31.5572" x2="418.255" y2="615.443" gradientUnits="userSpaceOnUse" spreadMethod="reflect" id="fill4"><stop offset="0" stop-color="#DCEAF7"/><stop offset="0.25" stop-color="#DCEAF7"/><stop offset="0.75" stop-color="#163E64"/><stop offset="1" stop-color="#163E64"/></linearGradient><linearGradient x1="1050.74" y1="31.5571" x2="418.255" y2="615.443" gradientUnits="userSpaceOnUse" spreadMethod="reflect" id="fill5"><stop offset="0" stop-color="#DCEAF7"/><stop offset="0.25" stop-color="#DCEAF7"/><stop offset="0.75" stop-color="#163E64"/><stop offset="1" stop-color="#163E64"/></linearGradient><linearGradient x1="1050.74" y1="31.5571" x2="418.255" y2="615.443" gradientUnits="userSpaceOnUse" spreadMethod="reflect" id="fill6"><stop offset="0" stop-color="#DCEAF7"/><stop offset="0.25" stop-color="#DCEAF7"/><stop offset="0.75" stop-color="#163E64"/><stop offset="1" stop-color="#163E64"/></linearGradient><linearGradient x1="1050.74" y1="31.5571" x2="418.255" y2="615.443" gradientUnits="userSpaceOnUse" spreadMethod="reflect" id="fill7"><stop offset="0" stop-color="#DCEAF7"/><stop offset="0.25" stop-color="#DCEAF7"/><stop offset="0.75" stop-color="#163E64"/><stop offset="1" stop-color="#163E64"/></linearGradient><linearGradient x1="1050.74" y1="31.5571" x2="418.255" y2="615.443" gradientUnits="userSpaceOnUse" spreadMethod="reflect" id="fill8"><stop offset="0" stop-color="#DCEAF7"/><stop offset="0.25" stop-color="#DCEAF7"/><stop offset="0.75" stop-color="#163E64"/><stop offset="1" stop-color="#163E64"/></linearGradient><linearGradient x1="1050.74" y1="31.5572" x2="418.255" y2="615.443" gradientUnits="userSpaceOnUse" spreadMethod="reflect" id="fill9"><stop offset="0" stop-color="#DCEAF7"/><stop offset="0.25" stop-color="#DCEAF7"/><stop offset="0.75" stop-color="#163E64"/><stop offset="1" stop-color="#163E64"/></linearGradient><linearGradient x1="1050.74" y1="31.5572" x2="418.255" y2="615.443" gradientUnits="userSpaceOnUse" spreadMethod="reflect" id="fill10"><stop offset="0" stop-color="#DCEAF7"/><stop offset="0.25" stop-color="#DCEAF7"/><stop offset="0.75" stop-color="#163E64"/><stop offset="1" stop-color="#163E64"/></linearGradient><linearGradient x1="1050.74" y1="31.5572" x2="418.255" y2="615.443" gradientUnits="userSpaceOnUse" spreadMethod="reflect" id="fill11"><stop offset="0" stop-color="#DCEAF7"/><stop offset="0.25" stop-color="#DCEAF7"/><stop offset="0.75" stop-color="#163E64"/><stop offset="1" stop-color="#163E64"/></linearGradient><linearGradient x1="1050.74" y1="31.5572" x2="418.255" y2="615.443" gradientUnits="userSpaceOnUse" spreadMethod="reflect" id="fill12"><stop offset="0" stop-color="#DCEAF7"/><stop offset="0.25" stop-color="#DCEAF7"/><stop offset="0.75" stop-color="#163E64"/><stop offset="1" stop-color="#163E64"/></linearGradient><linearGradient x1="1050.74" y1="31.5572" x2="418.255" y2="615.443" gradientUnits="userSpaceOnUse" spreadMethod="reflect" id="fill13"><stop offset="0" stop-color="#DCEAF7"/><stop offset="0.25" stop-color="#DCEAF7"/><stop offset="0.75" stop-color="#163E64"/><stop offset="1" stop-color="#163E64"/></linearGradient><linearGradient x1="1050.74" y1="31.5572" x2="418.255" y2="615.443" gradientUnits="userSpaceOnUse" spreadMethod="reflect" id="fill14"><stop offset="0" stop-color="#DCEAF7"/><stop offset="0.25" stop-color="#DCEAF7"/><stop offset="0.75" stop-color="#163E64"/><stop offset="1" stop-color="#163E64"/></linearGradient><linearGradient x1="1050.74" y1="31.5571" x2="418.255" y2="615.443" gradientUnits="userSpaceOnUse" spreadMethod="reflect" id="fill15"><stop offset="0" stop-color="#DCEAF7"/><stop offset="0.25" stop-color="#DCEAF7"/><stop offset="0.75" stop-color="#163E64"/><stop offset="1" stop-color="#163E64"/></linearGradient><linearGradient x1="1050.74" y1="31.5571" x2="418.255" y2="615.443" gradientUnits="userSpaceOnUse" spreadMethod="reflect" id="fill16"><stop offset="0" stop-color="#DCEAF7"/><stop offset="0.25" stop-color="#DCEAF7"/><stop offset="0.75" stop-color="#163E64"/><stop offset="1" stop-color="#163E64"/></linearGradient><linearGradient x1="1050.74" y1="31.5572" x2="418.255" y2="615.443" gradientUnits="userSpaceOnUse" spreadMethod="reflect" id="fill17"><stop offset="0" stop-color="#DCEAF7"/><stop offset="0.25" stop-color="#DCEAF7"/><stop offset="0.75" stop-color="#163E64"/><stop offset="1" stop-color="#163E64"/></linearGradient><linearGradient x1="1050.74" y1="31.5572" x2="418.255" y2="615.443" gradientUnits="userSpaceOnUse" spreadMethod="reflect" id="fill18"><stop offset="0" stop-color="#DCEAF7"/><stop offset="0.25" stop-color="#DCEAF7"/><stop offset="0.75" stop-color="#163E64"/><stop offset="1" stop-color="#163E64"/></linearGradient><linearGradient x1="1050.74" y1="31.5572" x2="418.255" y2="615.443" gradientUnits="userSpaceOnUse" spreadMethod="reflect" id="fill19"><stop offset="0" stop-color="#DCEAF7"/><stop offset="0.25" stop-color="#DCEAF7"/><stop offset="0.75" stop-color="#163E64"/><stop offset="1" stop-color="#163E64"/></linearGradient><linearGradient x1="1050.74" y1="31.5572" x2="418.255" y2="615.443" gradientUnits="userSpaceOnUse" spreadMethod="reflect" id="fill20"><stop offset="0" stop-color="#DCEAF7"/><stop offset="0.25" stop-color="#DCEAF7"/><stop offset="0.75" stop-color="#163E64"/><stop offset="1" stop-color="#163E64"/></linearGradient><linearGradient x1="1050.74" y1="31.5571" x2="418.255" y2="615.443" gradientUnits="userSpaceOnUse" spreadMethod="reflect" id="fill21"><stop offset="0" stop-color="#DCEAF7"/><stop offset="0.25" stop-color="#DCEAF7"/><stop offset="0.75" stop-color="#163E64"/><stop offset="1" stop-color="#163E64"/></linearGradient><linearGradient x1="1050.74" y1="31.5572" x2="418.255" y2="615.443" gradientUnits="userSpaceOnUse" spreadMethod="reflect" id="fill22"><stop offset="0" stop-color="#DCEAF7"/><stop offset="0.25" stop-color="#DCEAF7"/><stop offset="0.75" stop-color="#163E64"/><stop offset="1" stop-color="#163E64"/></linearGradient><linearGradient x1="1050.74" y1="31.5572" x2="418.255" y2="615.443" gradientUnits="userSpaceOnUse" spreadMethod="reflect" id="fill23"><stop offset="0" stop-color="#DCEAF7"/><stop offset="0.25" stop-color="#DCEAF7"/><stop offset="0.75" stop-color="#163E64"/><stop offset="1" stop-color="#163E64"/></linearGradient><linearGradient x1="1050.74" y1="31.5572" x2="418.255" y2="615.443" gradientUnits="userSpaceOnUse" spreadMethod="reflect" id="fill24"><stop offset="0" stop-color="#DCEAF7"/><stop offset="0.25" stop-color="#DCEAF7"/><stop offset="0.75" stop-color="#163E64"/><stop offset="1" stop-color="#163E64"/></linearGradient></defs><g><rect x="0" y="0" width="1280" height="720" fill="#FFFFFF"/><path d="M711 156 712 157 711.765 156.865 711 156Z" fill="url(#fill0)" fill-rule="evenodd"/><path d="M793 208 792.876 208.222 792 209 793 208Z" fill="url(#fill1)" fill-rule="evenodd"/><path d="M765 210 766 211 765.592 210.834 765 210Z" fill="url(#fill2)" fill-rule="evenodd"/><path d="M869 320 870 321 869.258 320.382 869 320Z" fill="url(#fill3)" fill-rule="evenodd"/><path d="M870 321 871 322 870.04 321.051 870 321Z" fill="url(#fill4)" fill-rule="evenodd"/><path d="M789 70 789.008 70.0049 790 71 789 70Z" fill="url(#fill5)" fill-rule="evenodd"/><path d="M789 72 789.337 72.2006 790 73 789 72Z" fill="url(#fill6)" fill-rule="evenodd"/><path d="M762 76 761 77 761.286 76.5506 762 76Z" fill="url(#fill7)" fill-rule="evenodd"/><path d="M687 89 687.677 89.3455 688 90 687 89Z" fill="url(#fill8)" fill-rule="evenodd"/><path d="M848 153 847.818 153.308 847 154 848 153Z" fill="url(#fill9)" fill-rule="evenodd"/><path d="M953 229 953.632 229.449 954 230 953 229Z" fill="url(#fill10)" fill-rule="evenodd"/><path d="M924 234 923 235 923.462 234.413 924 234Z" fill="url(#fill11)" fill-rule="evenodd"/><path d="M1032 236 1033 237 1032.02 236.024 1032 236Z" fill="url(#fill12)" fill-rule="evenodd"/><path d="M848.212 236 848.846 238.502C849.827 243.653 850.184 248.898 849.911 254.127L849.474 258 845.518 252.985C844.544 250.988 844 248.764 844 246.419 844 244.397 844.404 242.467 845.138 240.696L848.212 236Z" fill="url(#fill13)" fill-rule="evenodd"/><path d="M705.702 138C716.425 138 726.682 140.449 735.884 144.861L740.623 147.57 740.74 148.742C743.237 161.002 751.663 171.09 762.879 175.854L768.668 177.659 770.389 181.021C773.468 180.605 776.576 180.395 779.701 180.395 796.223 180.395 812.187 186.337 824.71 196.771L835 207.618 831.472 211.165 821.66 201.231 821.336 201.101C819.742 199.591 817.604 198.628 815.245 198.537L815.232 198.537C814.972 198.524 814.778 198.472 814.519 198.472 812.873 198.472 811.33 198.888 809.982 199.617L810.034 199.591C805.899 201.96 801.117 204.017 796.075 205.489L795.595 205.606C795.375 205.671 795.232 205.827 795.012 205.905L791.78 207.838 791.785 207.832 791.746 207.858 791.78 207.838 790.683 209.134 790.657 209.16C790.268 209.628 789.905 210.162 789.607 210.722L789.581 210.774 789.568 210.813 789.289 210.712C786.193 209.981 782.982 209.604 779.702 209.604 778.444 209.604 777.192 209.666 775.945 209.782 775.888 213.266 775.581 216.708 775.033 220.088L772.917 229 766.394 229 766.471 215.031C766.471 214.797 766.355 214.601 766.342 214.367L765.367 210.679 765.383 210.696 765.344 210.592 765.367 210.679 761.883 206.881 761.844 206.855C761.287 206.478 760.639 206.139 759.965 205.879L759.9 205.853C759.719 205.788 759.589 205.645 759.395 205.593 756.64 204.799 754.064 203.89 751.618 202.862L745.95 200.066 744.117 193.657C739.811 182.458 730.842 173.763 719.794 169.708L716.893 168.922 716.029 167.167C715.041 164.819 714.166 162.358 713.434 159.833L713.317 159.364C713.265 159.169 713.11 159.025 713.045 158.83L711.134 155.57 711.14 155.575 711.114 155.536 711.134 155.57 709.74 154.378 709.714 154.352C709.273 153.987 708.794 153.662 708.275 153.375L708.224 153.349C707.731 153.115 707.135 152.92 706.526 152.776L706.461 152.763C705.916 152.581 705.281 152.451 704.62 152.386L704.581 152.386C704.361 152.373 704.18 152.256 703.959 152.256L690 152.256 690 139.819 697.324 138.499C700.072 138.169 702.868 138 705.702 138Z" fill="url(#fill14)" fill-rule="evenodd"/><path d="M850.705 315.913 861.375 315.913C861.661 315.913 861.907 316.055 862.193 316.081L862.245 316.081C862.686 316.133 863.114 316.224 863.464 316.328L863.516 316.341C864.515 316.529 865.455 316.886 866.308 317.38L868.566 319.238 869.51 320.637 870.456 322.477C870.521 322.671 870.677 322.801 870.729 323.008L870.859 323.514C872.428 328.898 874.608 334.009 877.137 338.432L877.111 338.38C877.838 339.73 878.253 341.26 878.253 342.895 878.253 342.895 878.253 342.908 878.253 342.921 878.266 343.193 878.201 343.414 878.188 343.686L878.188 343.712C878.084 346.034 877.137 348.136 875.658 349.731 875.568 349.835 875.607 350.004 875.503 350.107L864.554 360.952 872.146 368.544 867.688 375.512C870.837 379.44 873.539 383.673 875.762 388.129L879.817 399 875.913 398.217C874.196 397.495 872.649 396.451 871.351 395.16L847.884 371.693C845.315 369.112 843.732 365.544 843.732 361.601 843.732 361.536 843.732 361.484 843.732 361.432L843.732 361.419 844.665 357.181 847.926 353.1 850.497 347.516 857.276 340.78C856.459 338.977 855.706 337.161 855.006 335.319L853.767 335.319 853.97 334.257C854.198 330.913 854.019 327.515 853.405 324.132ZM842.578 271.6C842.941 271.6 843.317 271.612 843.628 271.638L849.365 271.665 859.549 278.831 867.978 288.142 867.693 288.554C866.058 290.137 863.84 291.136 861.375 291.214L845.925 291.136 845.925 307.453 843.508 303.881C840.999 301.096 838.107 298.655 834.897 296.634L826.517 292.865 826.517 286.881 826.517 286.842C826.945 278.358 833.977 271.6 842.578 271.6ZM705.068 216.822C714.941 216.822 724.501 218.849 733.28 222.698L736.653 224.463 734.696 226.417C731.569 229.621 727.249 231.645 722.423 231.736 722.384 231.736 722.332 231.736 722.281 231.736 718.402 231.736 714.899 230.179 712.356 227.662L705.068 220.37ZM745.446 199.687 751.119 202.474C753.568 203.498 756.146 204.403 758.903 205.195 759.097 205.246 759.227 205.389 759.409 205.454L759.474 205.48C760.148 205.739 760.797 206.077 761.355 206.453L761.394 206.479 764.88 210.262 765.856 213.938C765.869 214.171 765.986 214.366 765.986 214.599L765.908 228.519 772.437 228.519 772.194 229.537C770.149 235.985 767.172 242.104 763.33 247.728L763.465 247.964 761.368 247.964 761.329 247.964C753.013 247.562 746.397 240.699 746.397 232.281 746.397 231.93 746.397 231.593 746.423 231.295L746.475 220.969 744.423 220.116 745.215 218.007C745.992 214.828 746.393 211.533 746.393 208.176 746.393 205.861 746.191 203.549 745.811 201.287L745.616 200.279ZM740.114 147.378 744.208 149.709C752.65 155.354 759.841 162.794 765.191 171.543L768.184 177.36 762.39 175.562C751.165 170.815 742.731 160.762 740.232 148.546ZM761.42 34 792.658 34 792.697 34C801.013 34.4021 807.629 41.2644 807.629 49.6835 807.629 50.0337 807.629 50.3709 807.603 50.6693L807.551 61.0212C809.039 61.592 810.513 62.2016 811.975 62.8503L819.291 55.5339 819.304 55.5209C822.197 52.2779 826.401 50.2282 831.084 50.2282 835.157 50.2282 838.867 51.7719 841.657 54.3015L863.736 76.3803 863.723 76.3673C866.266 79.1693 867.81 82.8793 867.81 86.9527 867.81 91.6357 865.773 95.8387 862.517 98.7315L855.161 106.009C855.81 107.475 856.433 108.954 857.004 110.458L867.291 110.458C867.628 110.432 867.966 110.419 868.316 110.419 876.722 110.419 883.598 117.035 884 125.389L884 156.614 884 156.653C883.598 164.968 876.735 171.584 868.316 171.584 867.966 171.584 867.628 171.584 867.33 171.558L856.991 171.506C856.42 172.993 855.81 174.468 855.161 175.929L862.478 183.246C865.682 186.372 867.706 190.692 867.797 195.517L867.797 195.66C867.797 199.539 866.227 203.041 863.711 205.584L844.615 224.678 844.615 224.678 841.618 227.675C839.062 230.205 835.559 231.762 831.693 231.762 831.642 231.762 831.59 231.762 831.551 231.762L831.538 231.762 831.525 231.762C826.712 231.671 822.379 229.647 819.253 226.43L811.975 219.114 807.705 220.881 805.634 218.695C803.193 216.655 800.54 214.92 797.722 213.512L789.104 210.397 789.117 210.357 789.143 210.306C789.441 209.748 789.804 209.216 790.193 208.749L790.219 208.723 791.317 207.432 794.552 205.506C794.773 205.428 794.915 205.272 795.136 205.208L795.616 205.091C800.663 203.625 805.449 201.575 809.588 199.214L809.536 199.24C810.885 198.514 812.429 198.099 814.076 198.099 814.336 198.099 814.531 198.151 814.79 198.164L814.803 198.164C817.164 198.254 819.304 199.214 820.9 200.719L821.224 200.849 831.045 210.747 834.576 207.213 834.576 207.213 847.196 194.583 836.831 185.191 836.688 184.854C835.183 183.246 834.236 181.105 834.145 178.718 834.132 178.472 834.081 178.277 834.093 178.031 834.093 178.018 834.093 178.005 834.093 177.992 834.093 176.357 834.509 174.827 835.209 173.529L835.04 173.854C837.57 169.391 839.607 164.617 841.177 159.13 841.242 158.923 841.397 158.78 841.462 158.585L841.488 158.521C841.734 157.911 842.033 157.327 842.37 156.821L842.396 156.769C842.682 156.237 843.032 155.745 843.395 155.303 843.784 154.901 844.199 154.538 844.679 154.201L844.666 154.214 846.341 153.08 847.858 152.566 847.793 152.579C848.48 152.359 849.194 152.203 849.972 152.138 850.167 152.125 850.335 152.021 850.543 152.021L864.515 152.086 864.515 129.917 850.543 129.917 850.53 129.917C848.571 129.865 846.755 129.229 845.302 128.178L845.263 128.153C844.991 127.971 844.705 127.789 844.472 127.608L844.459 127.595C843.084 126.466 842.02 124.961 841.423 123.171 841.384 123.041 841.229 122.977 841.19 122.834L841.073 122.354C839.607 117.308 837.557 112.521 835.196 108.383L835.222 108.435C834.496 107.086 834.081 105.555 834.081 103.92 834.081 103.92 834.081 103.907 834.081 103.894 834.068 103.622 834.132 103.401 834.145 103.129L834.145 103.103C834.249 100.781 835.196 98.6666 836.688 97.071L836.831 96.7207 846.729 86.9267 831.045 71.2433 821.16 81.1281C820.939 81.3487 820.589 81.2709 820.342 81.4654 818.721 83.035 816.515 83.9949 814.089 83.9949 812.403 83.9949 810.833 83.528 809.523 82.7497L809.86 82.9183C805.398 80.3888 800.624 78.365 795.123 76.7825 794.915 76.7305 794.773 76.5749 794.578 76.51L794.513 76.4841C793.891 76.2377 793.281 75.9263 792.762 75.5761L792.71 75.55C792.204 75.2777 791.737 74.9404 791.309 74.5901 790.868 74.175 790.479 73.7081 790.115 73.1891L790.128 73.2021 789.099 71.6585 788.533 69.9465 788.144 68.0002C788.131 67.7797 788.014 67.5851 788.014 67.3646L788.092 53.4454 765.908 53.4454 765.908 67.4165C765.908 67.624 765.792 67.8186 765.778 68.0262L765.778 68.0651C765.714 68.7527 765.571 69.4143 765.389 69.972L765.376 70.037C765.247 70.6206 765.052 71.1915 764.831 71.6714L764.805 71.7233 761.158 75.5773 759.331 76.51C759.136 76.5749 758.994 76.7305 758.799 76.7825L758.332 76.8992C753.299 78.352 748.525 80.3888 744.399 82.7627L744.451 82.7366C743.037 83.5409 741.402 84.008 739.651 84.008L739.431 83.9431 739.405 83.9431C737.16 83.8134 735.124 82.8924 733.567 81.4785 733.32 81.2709 732.944 81.3487 732.711 81.1152L722.916 71.2174 707.245 86.8879 717.13 96.7726 717.273 97.1229C718.765 98.7315 719.699 100.846 719.803 103.207 719.816 103.479 719.881 103.687 719.868 103.959 719.868 105.594 719.453 107.138 718.752 108.435L718.921 108.11C716.378 112.573 714.341 117.36 712.758 122.86 712.72 122.99 712.577 123.054 712.538 123.184L712.525 123.249C711.954 124.987 710.89 126.518 709.476 127.66L709.502 127.647C709.256 127.841 708.983 128.023 708.672 128.204L708.698 128.178C707.206 129.242 705.39 129.891 703.418 129.943L689.446 129.878 689.446 139.654 689.446 139.655 689.446 152.047 703.418 152.047C703.639 152.047 703.82 152.164 704.041 152.177L704.08 152.177C704.741 152.242 705.377 152.372 705.922 152.553L705.987 152.566C706.596 152.709 707.193 152.903 707.686 153.137L707.738 153.163C708.257 153.448 708.737 153.773 709.178 154.136L709.204 154.162 710.599 155.35 712.512 158.598C712.577 158.793 712.733 158.936 712.784 159.13L712.901 159.597C713.634 162.114 714.51 164.566 715.499 166.905L716.363 168.654 712.403 167.586C710.045 167.165 707.625 166.946 705.163 166.946 699.479 166.946 694.059 168.102 689.128 170.191L686.708 171.506 686.708 171.506 685.684 171.545C677.278 171.545 670.402 164.929 670 156.575L670 147.684 670 147.684 670 125.338 670 125.299C670.415 116.996 677.278 110.381 685.684 110.381 686.021 110.381 686.372 110.381 686.67 110.407L697.009 110.458C697.58 108.941 698.203 107.462 698.865 105.983L691.548 98.6796C690.218 97.3629 689.093 95.8419 688.22 94.1539L686.419 88.653 686.229 86.3559C686.229 82.4513 687.799 78.9099 690.328 76.3284L712.395 54.2627C715.184 51.7071 718.908 50.1504 722.981 50.1504 727.664 50.1504 731.867 52.213 734.76 55.482L742.038 62.8373C743.517 62.1757 744.983 61.566 746.488 60.9952L746.488 50.7083C746.462 50.3709 746.449 50.0337 746.449 49.6835 746.449 41.2774 753.065 34.4021 761.42 34Z" fill="url(#fill15)" fill-rule="evenodd"/><path d="M777.5 104C798.214 104 815 120.786 815 141.5L815 141.513C814.961 162.201 798.201 178.974 777.5 179 774.911 179 772.383 178.738 769.942 178.238L768.691 177.85 765.701 172.037C760.355 163.295 753.17 155.861 744.735 150.22L740.644 147.891 740 141.5C740 120.786 756.786 104 777.5 104ZM777.5 123.444C767.519 123.444 759.443 131.519 759.443 141.5 759.443 151.481 767.532 159.556 777.5 159.556L777.513 159.556C787.468 159.531 795.543 151.468 795.557 141.5 795.557 131.519 787.468 123.444 777.5 123.444Z" fill="url(#fill16)" fill-rule="evenodd"/><path d="M593.785 138C616.453 138 636.647 148.796 649.499 165.52 652.713 161.339 656.385 157.529 660.439 154.165L670.097 147.835 670.097 156.718C670.498 165.066 677.365 171.677 685.761 171.677L686.783 171.638 682.205 174.127C671.249 181.539 664.033 194.083 664.033 208.283L664.033 305.221 705.212 305.221C724.581 305.221 742.143 313.104 754.889 325.807 764.659 335.584 771.183 347.738 773.949 360.961L841.513 360.961 844.537 357.174 843.606 361.409 843.606 361.422C843.606 361.474 843.606 361.526 843.606 361.59 843.606 365.531 845.187 369.096 847.752 371.675L871.19 395.124C872.485 396.414 874.031 397.458 875.746 398.179L879.644 398.961 880.794 402.047C883.266 411.683 883.708 421.888 881.879 432.007 878.038 453.201 865.048 470.961 846.741 481.022 852.728 501.904 848.8 524.821 835.463 542.632 822.08 560.502 801.583 570.75 779.232 570.75 776.092 570.75 772.975 570.543 769.89 570.13 759.089 595.643 733.811 613 705.214 613 682.545 613 662.352 602.204 649.499 585.48 636.646 602.204 616.453 613 593.785 613 565.2 613 539.932 595.66 529.121 570.165 526.044 570.579 522.936 570.787 519.814 570.787 497.794 570.787 476.765 560.27 463.559 542.655 450.211 524.844 446.279 501.926 452.268 481.038 433.964 470.979 420.97 453.224 417.132 432.041 413.462 411.797 418.884 391.211 431.468 375.509 418.887 359.81 413.462 339.231 417.122 318.993 420.961 297.799 433.952 280.039 452.258 269.979 446.271 249.096 450.199 226.179 463.537 208.368 476.921 190.497 497.416 180.25 519.767 180.25 522.906 180.25 526.023 180.457 529.109 180.87 539.911 155.357 565.189 138 593.785 138ZM593.785 167.082C574.114 167.082 557.122 181.089 553.385 200.39L553.182 201.434C552.807 203.682 552.608 205.98 552.608 208.281 552.608 214.99 554.207 221.45 557.211 227.238 568.138 220.523 580.727 216.922 593.878 216.922 593.878 216.922 593.876 246.003 593.873 246.003 582.875 246.003 572.534 250.289 564.756 258.07 556.979 265.852 552.696 276.195 552.695 287.199L523.627 287.196C523.628 272.94 527.853 259.339 535.69 247.805 528.022 236.573 523.805 223.372 523.568 209.511 522.309 209.394 521.04 209.331 519.765 209.331 506.656 209.331 494.639 215.336 486.798 225.806 477.131 238.715 475.896 256.203 483.653 270.359L487.104 276.656 481.229 290.054 474.704 291.965C459.627 296.38 448.523 308.723 445.723 324.175 443.282 337.682 447.764 351.444 457.47 360.959L525.052 360.959C527.82 347.735 534.344 335.581 544.117 325.804L564.67 346.37C556.892 354.15 552.608 364.496 552.608 375.501 552.608 376.206 552.626 376.907 552.661 377.604 552.665 377.676 552.673 377.747 552.676 377.819 553.884 399.461 571.859 416.699 593.787 416.699L634.966 416.699 634.966 208.281C634.966 185.563 616.491 167.082 593.785 167.082ZM664.033 334.301 664.033 542.719C664.033 565.437 682.507 583.918 705.214 583.918 724.885 583.918 741.877 569.911 745.617 550.612L745.813 549.603C746.192 547.341 746.393 545.031 746.393 542.719 746.393 536.01 744.792 529.55 741.788 523.763 730.861 530.478 718.272 534.079 705.121 534.079 705.121 534.079 705.123 504.998 705.126 504.998 716.125 504.998 726.465 500.712 734.242 492.931 742.02 485.15 746.302 474.806 746.304 463.801L775.372 463.805C775.369 478.061 771.145 491.662 763.308 503.197 770.975 514.427 775.193 527.629 775.43 541.489 776.689 541.606 777.957 541.669 779.232 541.669 792.342 541.67 804.358 535.665 812.2 525.194 821.866 512.285 823.101 494.797 815.344 480.641L811.902 474.359 817.785 460.942 824.295 459.035C839.371 454.619 850.474 442.277 853.275 426.824 855.717 413.318 851.234 399.556 841.529 390.041L773.947 390.041C771.18 403.265 764.653 415.419 754.881 425.196L734.329 404.63C742.108 396.85 746.391 386.505 746.391 375.499 746.391 374.794 746.373 374.093 746.338 373.396 746.334 373.324 746.326 373.253 746.323 373.181 745.115 351.539 727.14 334.301 705.212 334.301L664.033 334.301ZM457.487 390.041C447.77 399.559 443.284 413.331 445.734 426.853 448.533 442.298 459.637 454.635 474.714 459.053L481.238 460.964 487.115 474.362 483.663 480.66C475.906 494.816 477.143 512.303 486.815 525.208 494.674 535.692 506.702 541.706 519.815 541.706 521.071 541.706 522.323 541.643 523.569 541.528 523.799 527.653 528.018 514.438 535.692 503.197 527.855 491.662 523.63 478.06 523.629 463.805L552.697 463.801C552.698 474.806 556.981 485.15 564.758 492.931 572.536 500.713 582.878 504.999 593.878 504.998L593.88 534.079C580.731 534.08 568.14 530.479 557.213 523.763 554.208 529.55 552.608 536.01 552.608 542.719 552.608 545.029 552.808 547.335 553.186 549.591L553.384 550.611C557.122 569.911 574.113 583.918 593.785 583.918 616.491 583.918 634.966 565.437 634.966 542.719L634.966 445.781 593.787 445.781C574.418 445.781 556.854 437.898 544.11 425.194 534.341 415.418 527.817 403.264 525.051 390.041L457.487 390.041Z" fill="url(#fill17)" fill-rule="evenodd"/><path d="M923.247 191 956.458 191 956.497 191C964.991 191.428 971.758 198.456 971.758 207.053 971.758 207.416 971.745 207.792 971.719 208.103L971.667 219.488C973.503 220.18 975.321 220.932 977.122 221.744L985.188 213.692C988.396 210.398 992.851 208.337 997.813 208.233L997.956 208.233C1001.92 208.233 1005.5 209.815 1008.11 212.382L1031.6 235.827 1034.64 240.747C1035.36 242.573 1035.75 244.56 1035.75 246.641 1035.75 251.452 1033.65 255.77 1030.28 258.739L1022.19 266.727C1023.01 268.529 1023.78 270.357 1024.48 272.212L1035.83 272.212C1036.19 272.186 1036.56 272.173 1036.93 272.173 1045.54 272.173 1052.57 278.929 1053 287.461L1053 320.617 1053 320.656C1052.57 329.136 1045.54 335.892 1036.93 335.892 1036.57 335.892 1036.19 335.879 1035.88 335.853L1024.48 335.801C1023.79 337.643 1023.05 339.445 1022.23 341.234L1030.31 349.3C1033.61 352.542 1035.69 357.028 1035.76 362.007 1035.76 362.02 1035.76 362.046 1035.76 362.059 1035.76 366.027 1034.15 369.619 1031.56 372.212L1008.11 395.644C1005.5 398.211 1001.92 399.793 997.968 399.793 997.956 399.793 997.93 399.793 997.917 399.793L997.839 399.793 997.826 399.793C992.903 399.689 988.461 397.641 985.24 394.373L977.2 386.255C975.382 387.072 973.564 387.824 971.719 388.525L971.719 399.858C971.745 400.208 971.758 400.571 971.758 400.934 971.758 409.544 964.991 416.572 956.432 417L923.221 417 923.182 417C914.687 416.572 907.921 409.557 907.921 400.96 907.921 400.597 907.934 400.221 907.96 399.91L908.011 388.551C906.141 387.851 904.31 387.098 902.492 386.268L894.465 394.295C891.257 397.602 886.789 399.702 881.814 399.806 881.775 399.806 881.723 399.806 881.684 399.806L880.003 399.469 875.943 388.602C873.717 384.148 871.013 379.917 867.86 375.991L872.323 369.026 882.256 378.942 893.179 368.024C893.296 367.907 893.465 367.959 893.581 367.855L893.569 367.868C895.153 366.416 897.231 365.495 899.543 365.379L899.504 365.379C899.803 365.34 900.115 365.314 900.426 365.301 900.439 365.301 900.439 365.301 900.452 365.301 902.076 365.301 903.595 365.703 904.881 366.39L904.531 366.209C909.31 368.932 914.454 371.123 920.35 372.796 920.545 372.848 920.675 372.99 920.857 373.055L920.922 373.081C921.61 373.341 922.247 373.678 922.818 374.067L922.857 374.093C924.909 375.247 926.429 377.244 926.948 379.668L926.936 379.603C927.143 380.226 927.273 380.874 927.338 381.587 927.351 381.795 927.455 381.976 927.455 382.184L927.377 397.589 952.185 397.589 952.185 382.145C952.185 381.938 952.289 381.769 952.302 381.575L952.302 381.536C952.464 379.947 952.99 378.466 953.802 377.174L957.004 373.962 958.718 373.081C958.926 373.003 959.069 372.848 959.289 372.783L959.809 372.653C965.199 371.084 970.342 368.893 974.771 366.377L974.719 366.403C976.044 365.677 977.577 365.262 979.2 365.262 979.226 365.262 979.239 365.262 979.265 365.262 979.525 365.262 979.733 365.314 979.993 365.327L980.019 365.327C982.37 365.431 984.487 366.377 986.084 367.868 986.188 367.972 986.344 367.92 986.448 368.024L997.28 378.942 1014.81 361.437 1003.88 350.519 1003.74 350.182C1002.19 348.548 1001.23 346.369 1001.16 343.958 1001.15 343.75 1001.11 343.595 1001.11 343.4 1001.11 343.374 1001.11 343.348 1001.11 343.322 1001.11 341.688 1001.53 340.145 1002.23 338.862L1002.05 339.199C1004.77 334.44 1006.96 329.331 1008.62 323.457 1008.68 323.249 1008.84 323.094 1008.92 322.886L1008.94 322.821C1009.19 322.199 1009.5 321.616 1009.84 321.097L1009.87 321.045C1010.15 320.539 1010.49 320.059 1010.84 319.632 1012.06 318.413 1013.55 317.466 1015.31 316.883L1015.24 316.896C1015.96 316.649 1016.71 316.494 1017.53 316.429 1017.7 316.416 1017.84 316.325 1018.02 316.325L1033.5 316.403 1033.49 291.675 1018.02 291.675 1018.01 291.675C1016.05 291.623 1014.24 290.975 1012.78 289.924L1012.74 289.899C1012.45 289.73 1012.18 289.536 1011.93 289.354L1011.92 289.341C1010.54 288.226 1009.49 286.722 1008.89 284.945 1008.85 284.802 1008.68 284.738 1008.64 284.582L1008.53 284.089C1006.97 278.695 1004.77 273.573 1002.23 269.139L1002.25 269.19C1001.53 267.855 1001.11 266.312 1001.11 264.678 1001.11 264.665 1001.11 264.639 1001.11 264.626 1001.11 264.367 1001.16 264.159 1001.18 263.9L1001.18 263.874C1001.28 261.527 1002.23 259.4 1003.74 257.805L1003.88 257.468 1014.84 246.641 997.306 229.136 986.37 240.054C986.136 240.274 985.786 240.196 985.539 240.391 983.928 241.882 981.811 242.816 979.46 242.919 979.46 242.919 979.447 242.919 979.447 242.919 977.694 242.919 976.057 242.453 974.693 241.675L975.044 241.856C970.251 239.146 965.134 236.968 959.237 235.282L959.172 235.269C957.796 234.861 956.549 234.147 955.506 233.202L953.084 229.768 952.743 228.747 952.769 228.811C952.509 228.072 952.341 227.294 952.263 226.452 952.25 226.244 952.146 226.088 952.146 225.881L952.224 210.476 927.416 210.476 927.416 225.92C927.416 226.127 927.312 226.296 927.299 226.503L927.299 226.542C927.234 227.242 927.091 227.917 926.897 228.5L926.884 228.552C926.611 229.745 926.085 230.841 925.357 231.783L922.641 234.074 920.844 234.997C920.649 235.062 920.506 235.217 920.311 235.269L919.818 235.399C914.428 236.955 909.297 239.133 904.868 241.675L904.92 241.649C903.505 242.466 901.868 242.932 900.115 242.932 900.102 242.932 900.102 242.932 900.102 242.932L900.076 242.932C897.738 242.829 895.608 241.882 894.01 240.391 893.763 240.183 893.413 240.274 893.179 240.041L882.321 229.097 864.786 246.602 875.723 257.546 875.839 257.844C877.372 259.465 878.333 261.618 878.411 264.017 878.424 264.263 878.476 264.457 878.463 264.704 878.463 266.338 878.047 267.881 877.333 269.177L877.515 268.827C874.8 273.612 872.618 278.734 870.917 284.634 870.683 285.477 869.956 285.944 869.527 286.657L869.501 286.709 868.15 288.657 859.711 279.349 849.515 272.186 855.162 272.212C855.864 270.344 856.63 268.516 857.448 266.714L849.382 258.661 849.369 258.648 849.227 258.459 849.653 254.485C849.919 249.119 849.571 243.738 848.617 238.452L848 235.885 848.044 235.814 871.553 212.356C874.164 209.789 877.736 208.207 881.684 208.207 881.736 208.207 881.788 208.207 881.84 208.207L881.853 208.207 881.866 208.207C886.802 208.311 891.257 210.386 894.465 213.679L902.505 221.758C904.297 220.941 906.115 220.188 907.96 219.488L907.96 208.168C907.934 207.805 907.921 207.442 907.921 207.079 907.921 198.469 914.687 191.428 923.247 191Z" fill="url(#fill18)" fill-rule="evenodd"/><path d="M812.305 219 819.642 226.341C822.794 229.569 827.162 231.6 832.014 231.691L832.027 231.691 832.04 231.691C832.08 231.691 832.132 231.691 832.184 231.691 836.082 231.691 839.613 230.129 842.189 227.591L845.211 224.583 847.198 229.995 848.475 235.29 845.462 240.127C844.743 241.951 844.347 243.939 844.347 246.021 844.347 248.436 844.88 250.727 845.835 252.783L849.711 257.949 849.274 262.014C848.83 264.685 848.231 267.338 847.475 269.96L850 271.728 844.217 271.702C843.903 271.676 843.523 271.663 843.157 271.663 834.486 271.663 827.397 278.444 826.966 286.957L826.966 286.996 826.966 293 824.82 292.039 818.234 290.12 815.242 283.288 812.293 276.681 815.784 270.342C823.615 256.127 822.365 238.568 812.603 225.609L808 220.774 812.305 219Z" fill="url(#fill19)" fill-rule="evenodd"/><path d="M744.724 220 746.795 220.852 746.743 231.173C746.717 231.471 746.717 231.808 746.717 232.158 746.717 240.572 753.395 247.431 761.789 247.833L761.828 247.833 763.945 247.833 769.054 256.615C773.596 265.976 775.999 276.302 776 286.996L746.622 287C746.62 275.993 742.292 265.646 734.432 257.866 726.57 250.081 716.119 245.795 705.002 245.796L705 220.254 712.357 227.542C714.923 230.058 718.459 231.613 722.374 231.613 722.427 231.613 722.479 231.613 722.518 231.613 727.389 231.523 731.75 229.5 734.906 226.298L736.882 224.345 742.058 227.026 744.724 220Z" fill="url(#fill20)" fill-rule="evenodd"/><path d="M940 265C940 265 940.013 265 940.013 265 961.536 265.026 978.974 282.477 979 304.013 979 325.549 961.536 343 940 343 918.464 343 901 325.536 901 304 901 282.464 918.464 265 940 265ZM940 284.345C929.135 284.345 920.333 293.148 920.333 304.013 920.333 314.878 929.135 323.68 940 323.68 940 323.68 940.013 323.68 940.013 323.68 950.852 323.668 959.642 314.878 959.667 304.026 959.667 304.026 959.667 304.013 959.667 304.013 959.667 293.148 950.865 284.345 940 284.345Z" fill="url(#fill21)" fill-rule="evenodd"/><path d="M867.908 288 869.8 290.12C875.785 298.533 879.97 308.347 881.879 319.025 884.616 334.331 882.267 349.833 875.641 363.306L872.048 369 864.506 361.351 875.383 350.426C875.486 350.322 875.447 350.152 875.537 350.047 877.006 348.44 877.947 346.322 878.05 343.983L878.05 343.957C878.063 343.682 878.128 343.46 878.115 343.186 878.115 343.173 878.115 343.16 878.115 343.16 878.115 341.513 877.702 339.971 876.981 338.612L877.006 338.664C874.493 334.208 872.328 329.059 870.769 323.635L870.64 323.126C870.589 322.916 870.434 322.786 870.37 322.59L869.43 320.736 869.455 320.773 869.429 320.734 869.43 320.736 868.491 319.328 868.501 319.336 868.488 319.323 868.491 319.328 866.249 317.455C865.402 316.957 864.467 316.598 863.475 316.408L863.423 316.395C863.075 316.291 862.65 316.199 862.212 316.147L862.161 316.147C861.877 316.121 861.632 315.977 861.349 315.977L850.748 315.977 849.862 313.242 846 307.454 846 291.016 861.349 291.094C863.797 291.016 866.001 290.01 867.625 288.415L867.908 288Z" fill="url(#fill22)" fill-rule="evenodd"/><path d="M854.376 336 855.656 336C856.379 337.812 857.156 339.599 858 341.373L851 348 852.646 344.594 854.376 336Z" fill="url(#fill23)" fill-rule="evenodd"/><path d="M958 374 957.693 374.466 957 375 958 374Z" fill="url(#fill24)" fill-rule="evenodd"/></g></svg>