<svg width="1280" height="720" xmlns="http://www.w3.org/2000/svg" xmlns:xlink="http://www.w3.org/1999/xlink" overflow="hidden"><defs><linearGradient x1="811.228" y1="268.046" x2="468.772" y2="451.954" gradientUnits="userSpaceOnUse" spreadMethod="reflect" id="fill0"><stop offset="0" stop-color="#DCEAF7"/><stop offset="0.25" stop-color="#DCEAF7"/><stop offset="0.75" stop-color="#163E64"/><stop offset="1" stop-color="#163E64"/></linearGradient></defs><g><rect x="0" y="0" width="1280" height="720" fill="#FFFFFF"/><path d="M642.345 566.591C640.829 567.136 639.171 567.136 637.655 566.591 617.528 559.553 474 503.662 474 344.518L474 200.692C473.991 196.885 476.585 193.563 480.287 192.64L637.987 153.247C639.309 152.918 640.691 152.918 642.013 153.247L799.713 192.64C803.415 193.563 806.009 196.885 806 200.692L806 344.518C806 505.256 662.493 559.739 642.345 566.612Z" fill-rule="evenodd"/><path d="M642.076 543.636C640.734 544.121 639.266 544.121 637.924 543.636 620.1 537.38 493 487.7 493 346.238L493 218.393C492.992 215.009 495.289 212.056 498.568 211.235L638.218 176.22C639.388 175.927 640.612 175.927 641.782 176.22L781.432 211.235C784.711 212.056 787.008 215.009 787 218.393L787 346.238C787 489.116 659.919 537.546 642.076 543.655Z" fill="#FFFFFF" fill-rule="evenodd"/><path d="M641.865 524.674C640.66 525.109 639.341 525.109 638.135 524.674 622.13 519.064 508 474.513 508 347.659L508 233.016C507.993 229.981 510.056 227.333 513 226.597L638.4 195.197C639.45 194.934 640.55 194.934 641.601 195.197L767 226.597C769.944 227.333 772.007 229.981 772 233.016L772 347.659C772 475.784 657.886 519.212 641.865 524.691Z" fill="url(#fill0)" fill-rule="evenodd"/><path d="M626.687 291.818C628.677 291.32 630.694 290.935 632.727 290.663L632.727 299.903C632.727 303.919 635.983 307.174 640 307.174 644.017 307.174 647.273 303.919 647.273 299.903L647.273 290.617C658.159 292.164 668.242 297.219 675.993 305.016L675.998 305.023 676.008 305.029C683.76 312.802 688.787 322.876 690.335 333.743L683.636 333.743C679.62 333.743 676.364 336.998 676.364 341.014 676.364 345.03 679.62 348.286 683.636 348.286L690.342 348.286C690.064 350.309 689.675 352.316 689.176 354.297 688.174 358.185 690.513 362.149 694.402 363.151 694.403 363.152 694.403 363.152 694.403 363.152 694.997 363.306 695.608 363.384 696.222 363.383 699.537 363.38 702.432 361.136 703.26 357.925 704.058 354.756 704.632 351.535 704.978 348.286L712.727 348.286C716.744 348.286 720 345.03 720 341.014 720 336.998 716.744 333.743 712.727 333.743L705.023 333.743C703.671 321.465 698.846 309.827 691.113 300.194L696.569 294.74C699.409 291.901 699.409 287.297 696.569 284.458 693.73 281.619 689.125 281.619 686.285 284.458L680.81 289.931C671.182 282.204 659.546 277.388 647.273 276.049L647.273 268.271C647.273 264.256 644.017 261 640 261 635.983 261 632.727 264.256 632.727 268.271L632.727 276.02C629.467 276.362 626.236 276.936 623.058 277.737 619.172 278.753 616.846 282.726 617.862 286.61 618.872 290.476 622.813 292.802 626.687 291.818ZM654.545 319.2C654.545 323.216 657.802 326.472 661.818 326.472 665.835 326.472 669.091 323.216 669.091 319.2 669.091 315.184 665.835 311.929 661.818 311.929 657.802 311.929 654.545 315.184 654.545 319.2ZM686.38 377.103 686.325 377.02 686.239 376.963 572.415 263.159C569.56 260.334 564.956 260.357 562.131 263.211 559.325 266.044 559.325 270.608 562.131 273.441L588.886 300.192C581.153 309.825 576.328 321.464 574.977 333.743L567.273 333.743C563.256 333.743 560 336.998 560 341.014 560 345.03 563.256 348.286 567.273 348.286L574.982 348.286C576.337 360.563 581.158 372.201 588.883 381.84L583.43 387.292C580.591 390.131 580.591 394.734 583.43 397.574 586.27 400.413 590.875 400.413 593.714 397.574L599.168 392.121C608.811 399.837 620.451 404.649 632.727 405.996L632.727 413.729C632.727 417.744 635.983 421 640 421 644.017 421 647.273 417.744 647.273 413.729L647.273 405.996C659.549 404.649 671.189 399.837 680.832 392.121L707.585 418.869C710.44 421.694 715.044 421.671 717.869 418.817 720.675 415.984 720.675 411.42 717.869 408.587ZM647.273 391.31 647.273 377.371C647.273 373.356 644.017 370.1 640 370.1 635.983 370.1 632.727 373.356 632.727 377.371L632.727 391.311C621.876 389.778 611.812 384.778 604.036 377.057L604.002 377.006 603.953 376.973C596.224 369.199 591.215 359.137 589.671 348.286L596.364 348.286C600.38 348.286 603.636 345.03 603.636 341.014 603.636 336.998 600.38 333.743 596.364 333.743L589.664 333.743C590.865 325.335 594.169 317.365 599.269 310.572L612.749 324.051C609.401 329.056 610.746 335.827 615.752 339.174 619.42 341.627 624.207 341.627 627.876 339.174L670.442 381.733C663.645 386.818 655.677 390.112 647.273 391.31ZM618.182 355.557C614.165 355.557 610.909 358.813 610.909 362.829 610.909 366.845 614.165 370.1 618.182 370.1 622.198 370.1 625.455 366.845 625.455 362.829 625.455 358.813 622.198 355.557 618.182 355.557Z" fill="#FFFFFF" fill-rule="evenodd"/></g></svg>