<!DOCTYPE svg PUBLIC "-//W3C//DTD SVG 1.1//EN" "http://www.w3.org/Graphics/SVG/1.1/DTD/svg11.dtd">
<!-- Uploaded to: SVG Repo, www.svgrepo.com, Transformed by: SVG Repo Mixer Tools -->
<svg fill="#C1E5F5" version="1.1" id="Layer_1" xmlns:x="&amp;ns_extend;" xmlns:i="&amp;ns_ai;" xmlns:graph="&amp;ns_graphs;" xmlns="http://www.w3.org/2000/svg" xmlns:xlink="http://www.w3.org/1999/xlink" width="800px" height="800px" viewBox="0 0 24 24" enable-background="new 0 0 24 24" xml:space="preserve">
<g id="SVGRepo_bgCarrier" stroke-width="0"/>
<g id="SVGRepo_tracerCarrier" stroke-linecap="round" stroke-linejoin="round"/>
<g id="SVGRepo_iconCarrier"> <metadata> <sfw> <slices> </slices> <slicesourcebounds width="505" height="984" bottomleftorigin="true" x="0" y="-984"> </slicesourcebounds> </sfw> </metadata> <g> <g> <g> <path d="M23,12c0,6.1-4,11-11,11V1C19,1,23,5.9,23,12z"/> </g> <g> <path d="M12,24c-0.6,0-1-0.4-1-1V1c0-0.6,0.4-1,1-1c7.1,0,12,4.9,12,12S19.1,24,12,24z M13,2V22c6.2-0.5,9-5.2,9-10 S19.2,2.5,13,2z"/> </g> </g> <g> <g> <path d="M12,24C5.4,24,0,18.6,0,12S5.4,0,12,0c0.6,0,1,0.4,1,1v22C13,23.6,12.6,24,12,24z M11,2C6,2.6,2,6.8,2,12s4,9.4,9,10V2z"/> </g> </g> </g> </g>
</svg>