<svg width="1280" height="720" xmlns="http://www.w3.org/2000/svg" xmlns:xlink="http://www.w3.org/1999/xlink" overflow="hidden"><defs><linearGradient x1="426.372" y1="133.394" x2="853.628" y2="586.606" gradientUnits="userSpaceOnUse" spreadMethod="reflect" id="fill0"><stop offset="0" stop-color="#163E64"/><stop offset="0.28" stop-color="#163E64"/><stop offset="0.82" stop-color="#C1E5F5"/><stop offset="1" stop-color="#C1E5F5"/></linearGradient><linearGradient x1="426.372" y1="133.394" x2="853.628" y2="586.606" gradientUnits="userSpaceOnUse" spreadMethod="reflect" id="fill1"><stop offset="0" stop-color="#163E64"/><stop offset="0.28" stop-color="#163E64"/><stop offset="0.82" stop-color="#C1E5F5"/><stop offset="1" stop-color="#C1E5F5"/></linearGradient><linearGradient x1="426.372" y1="133.394" x2="853.628" y2="586.606" gradientUnits="userSpaceOnUse" spreadMethod="reflect" id="fill2"><stop offset="0" stop-color="#163E64"/><stop offset="0.28" stop-color="#163E64"/><stop offset="0.82" stop-color="#C1E5F5"/><stop offset="1" stop-color="#C1E5F5"/></linearGradient></defs><g><path d="M640 146C765.369 146 867 247.522 867 372.756 867 411.891 857.075 448.711 839.602 480.841L829.167 498 829.167 372.756 829.167 372.755 829.167 372.755 828.19 353.435C818.503 258.149 737.944 183.793 640 183.793 542.056 183.793 461.497 258.149 451.81 353.435L450.833 372.755 450.833 372.755 450.833 372.756 450.833 498 440.398 480.841C422.925 448.711 413 411.891 413 372.756 413 247.522 514.631 146 640 146Z" fill="url(#fill0)" fill-rule="evenodd"/><path d="M489 463 639.446 538.895 791 463 791 463 791 463 791 518.801 784.075 525.12 774.184 532.64 774.184 506.557 774.184 506.557 774.184 506.557 639.507 574 505.816 506.557 505.816 506.557 505.816 532.64 495.925 525.12 489 518.801 489 463 489 463Z" fill="url(#fill1)" fill-rule="evenodd"/><path d="M550.717 330.813 568.429 330.813 568.429 328.688 568.429 293.4C568.429 273.22 576.686 254.87 589.973 241.575L589.973 241.557C603.266 228.26 621.614 220 641.802 220 661.974 220 680.318 228.26 693.611 241.557L693.631 241.575C706.918 254.87 715.175 273.22 715.175 293.4L715.175 328.688 715.175 330.813 729.283 330.813C732.426 330.813 735 333.388 735 336.53L735 457.283C735 460.425 732.426 463 729.283 463L550.717 463C547.574 463 545 460.425 545 457.283L545 336.53C545 333.388 547.574 330.813 550.717 330.813L550.717 330.813ZM596.936 330.813 686.662 330.813 686.662 328.688 686.662 292.993C686.662 280.653 681.613 269.427 673.492 261.293L673.482 261.301C665.355 253.165 654.134 248.113 641.802 248.113 629.464 248.113 618.243 253.163 610.106 261.293 601.983 269.427 596.936 280.653 596.936 292.993L596.936 328.69 596.936 330.813 596.936 330.813ZM642.164 396.887 651.22 438.69 626.396 438.795 633.681 396.43C626.898 394.255 621.981 387.897 621.981 380.39 621.981 371.094 629.513 363.559 638.811 363.559 648.098 363.559 655.636 371.094 655.636 380.39 655.636 388.538 649.848 395.335 642.164 396.887L642.164 396.887Z" fill="url(#fill2)" fill-rule="evenodd"/></g></svg>