<svg width="1280" height="720" xmlns="http://www.w3.org/2000/svg" xmlns:xlink="http://www.w3.org/1999/xlink" overflow="hidden"><g><rect x="0" y="0" width="1280" height="720" fill="#FFFFFF"/><path d="M595.148 243 595.148 284.111 589.03 287.742C565.529 303.255 550.077 329.527 550.077 359.325 550.077 407.002 589.633 445.651 638.428 445.651 687.223 445.651 726.779 407.002 726.779 359.325 726.779 329.527 711.328 303.255 687.826 287.742L684.852 285.976 684.852 243 687.877 244.082C732.024 262.326 763 305.038 763 354.819 763 421.193 707.931 475 640 475 572.069 475 517 421.193 517 354.819 517 305.038 547.976 262.326 592.123 244.082Z" fill="#FFFFFF" fill-rule="evenodd"/><path d="M640 205C657.121 205 671 217.237 671 232.333L671 347.667C671 362.763 657.121 375 640 375 622.879 375 609 362.763 609 347.667L609 232.333C609 217.237 622.879 205 640 205Z" fill="#FFFFFF" fill-rule="evenodd"/><path d="M640 146C765.369 146 867 247.522 867 372.756 867 411.891 857.075 448.711 839.602 480.841L829.167 498 829.167 372.756 829.167 372.755 829.167 372.755 828.19 353.435C818.503 258.149 737.944 183.793 640 183.793 542.056 183.793 461.497 258.149 451.81 353.435L450.833 372.755 450.833 372.755 450.833 372.756 450.833 498 440.398 480.841C422.925 448.711 413 411.891 413 372.756 413 247.522 514.631 146 640 146Z" fill="#FFFFFF" fill-rule="evenodd"/><path d="M489 463 639.446 538.895 791 463 791 463 791 463 791 518.801 784.075 525.12 774.184 532.64 774.184 506.557 774.184 506.557 774.184 506.557 639.507 574 505.816 506.557 505.816 506.557 505.816 532.64 495.925 525.12 489 518.801 489 463 489 463Z" fill="#FFFFFF" fill-rule="evenodd"/></g></svg>