<?xml version="1.0" encoding="UTF-8" standalone="no"?>
<svg
   width="454"
   height="428"
   overflow="hidden"
   version="1.1"
   id="svg10"
   sodipodi:docname="logoV2.svg"
   viewBox="0 0 454 428"
   inkscape:version="1.4.2 (f4327f4, 2025-05-13)"
   xmlns:inkscape="http://www.inkscape.org/namespaces/inkscape"
   xmlns:sodipodi="http://sodipodi.sourceforge.net/DTD/sodipodi-0.dtd"
   xmlns="http://www.w3.org/2000/svg"
   xmlns:svg="http://www.w3.org/2000/svg">
  <sodipodi:namedview
     id="namedview10"
     pagecolor="#ffffff"
     bordercolor="#000000"
     borderopacity="0.25"
     inkscape:showpageshadow="2"
     inkscape:pageopacity="0.0"
     inkscape:pagecheckerboard="0"
     inkscape:deskcolor="#d1d1d1"
     inkscape:zoom="1.4486111"
     inkscape:cx="227.11409"
     inkscape:cy="213.65292"
     inkscape:window-width="2400"
     inkscape:window-height="1261"
     inkscape:window-x="2391"
     inkscape:window-y="-9"
     inkscape:window-maximized="1"
     inkscape:current-layer="svg10" />
  <defs
     id="defs7">
    <linearGradient
       x1="700.04602"
       y1="239.616"
       x2="579.95398"
       y2="340.384"
       gradientUnits="userSpaceOnUse"
       spreadMethod="reflect"
       id="fill0">
      <stop
         offset="0"
         stop-color="#C1E5F5"
         id="stop1" />
      <stop
         offset="0.75"
         stop-color="#163E64"
         id="stop2" />
      <stop
         offset="1"
         stop-color="#163E64"
         id="stop3" />
    </linearGradient>
    <linearGradient
       x1="755.93903"
       y1="421.216"
       x2="524.06097"
       y2="615.784"
       gradientUnits="userSpaceOnUse"
       spreadMethod="reflect"
       id="fill1">
      <stop
         offset="0"
         stop-color="#C1E5F5"
         id="stop4" />
      <stop
         offset="0.18"
         stop-color="#C1E5F5"
         id="stop5" />
      <stop
         offset="0.75"
         stop-color="#163E64"
         id="stop6" />
      <stop
         offset="1"
         stop-color="#163E64"
         id="stop7" />
    </linearGradient>
  </defs>
  <g
     id="g10"
     transform="translate(-413,-146)">
    <path
       d="m 595.148,243 v 41.111 l -6.118,3.631 c -23.501,15.513 -38.953,41.785 -38.953,71.583 0,47.677 39.556,86.326 88.351,86.326 48.795,0 88.351,-38.649 88.351,-86.326 0,-29.798 -15.451,-56.07 -38.953,-71.583 l -2.974,-1.766 V 243 l 3.025,1.082 C 732.024,262.326 763,305.038 763,354.819 763,421.193 707.931,475 640,475 572.069,475 517,421.193 517,354.819 c 0,-49.781 30.976,-92.493 75.123,-110.737 z"
       fill="#163e64"
       fill-rule="evenodd"
       id="path7" />
    <path
       d="m 640,205 c 17.121,0 31,12.237 31,27.333 V 347.667 C 671,362.763 657.121,375 640,375 622.879,375 609,362.763 609,347.667 V 232.333 C 609,217.237 622.879,205 640,205 Z"
       fill="url(#fill0)"
       fill-rule="evenodd"
       id="path8"
       style="fill:url(#fill0)" />
    <path
       d="m 640,146 c 125.369,0 227,101.522 227,226.756 0,39.135 -9.925,75.955 -27.398,108.085 L 829.167,498 v -125.244 -10e-4 0 l -0.977,-19.32 C 818.503,258.149 737.944,183.793 640,183.793 c -97.944,0 -178.503,74.356 -188.19,169.642 l -0.977,19.32 v 0 10e-4 V 498 L 440.398,480.841 C 422.925,448.711 413,411.891 413,372.756 413,247.522 514.631,146 640,146 Z"
       fill="#163e64"
       fill-rule="evenodd"
       id="path9" />
    <path
       d="M 489,463 639.446,538.895 791,463 v 0 0 55.801 l -6.925,6.319 -9.891,7.52 v -26.083 0 0 L 639.507,574 505.816,506.557 v 0 26.083 l -9.891,-7.52 -6.925,-6.319 z"
       fill="url(#fill1)"
       fill-rule="evenodd"
       id="path10"
       style="fill:url(#fill1)" />
  </g>
</svg>
